<?xml version="1.0" encoding="UTF-8"?>
<svg id="Layer_1" data-name="Layer 1" xmlns="http://www.w3.org/2000/svg" viewBox="0 0 2899.17 155.43">
  <defs>
    <style>
      .cls-1 {
        fill: #246ab4;
        stroke-width: 0px;
      }
    </style>
  </defs>
  <path class="cls-1" d="M2624.61,155.12c-.55.02-1.1.03-1.64.05.54-.01,1.09-.02,1.64-.04,3.6.11,7.18.03,10.73-.24-3.55.26-7.13.34-10.73.23ZM73.44.77c-22.98.01-45.96.08-68.94-.07,22.98.15,45.96.08,68.94.08h17.66c-5.89-.01-11.77-.01-17.66-.01Z"/>
  <path class="cls-1" d="M607.33,155.17c-17.98-.07-35.97-.09-53.96.02-2.86.02-4-1.1-4.86-3.74-8.52-25.88-17.15-51.74-25.88-77.55-.68-2.03-.52-5.68-2.96-5.59-2.12.07-2.17,3.67-2.88,5.79-8.67,25.83-17.33,51.67-25.83,77.56-.91,2.78-2.29,3.54-5.01,3.52-17.66-.09-35.31-.08-52.96-.01-3.08.01-4.52-.02-3.01-3.98,18.51-48.74,36.84-97.54,55.14-146.35,1.17-3.12,2.8-4.25,6.23-4.15,9.48.27,18.98.09,28.48.09s18.66.22,27.97-.1c3.9-.13,5.49,1.41,6.77,4.82,15.6,41.67,31.33,83.29,47.01,124.93,2.69,7.15,5.21,14.37,8.1,21.43,1.2,2.92.36,3.33-2.35,3.31Z"/>
  <path class="cls-1" d="M308.95,155.2c-17.82-.14-35.64-.21-53.46.05-3.86.06-4.3-2.3-5.1-4.72-8.82-26.44-17.59-52.9-26.39-79.35-.51-1.53-.73-3.21-2.48-4.87-9.36,28.15-18.63,55.85-27.73,83.59-1.24,3.77-2.82,5.45-7.21,5.37-17.15-.33-34.31-.21-51.46-.07-3.72.03-4.13-.93-2.87-4.27,18.25-48.13,36.45-96.27,54.42-144.49,1.71-4.57,4.01-5.84,8.69-5.77,18.32.28,36.64.15,54.96.07,2.9-.01,4.75.38,5.99,3.69,18.34,48.97,36.86,97.88,55.41,146.78,1.16,3.07.68,4.01-2.77,3.99Z"/>
  <path class="cls-1" d="M1520.37,153.75c-6.31-.37-12.65-.17-18.98-.06-2.48.04-3.45-.64-3.55-3.35-1.06-28.06-2.27-56.12-3.43-84.18-.45-10.88-.86-21.75-1.29-32.63-.3-.04-.6-.09-.9-.13-3.68,12.01-7.16,24.08-11.08,36.01-8.71,26.52-17.66,52.96-26.46,79.45-.79,2.38-1.98,3.44-4.65,3.32-4.81-.23-9.66-.23-14.48-.01-3.1.15-4.17-1.09-5.05-4-9.83-32.41-20.82-64.48-28.96-97.4-1.47-5.92-2.84-11.87-5.09-17.79-.33,6.59-.75,13.17-.99,19.77-1.17,32.38-2.98,64.73-4.95,97.07-.19,3.13-1.13,3.97-4.07,3.89-5.83-.17-11.68-.33-17.48.04-4.16.27-4.99-1.2-4.7-5.06,1.61-21.2,3.05-42.42,4.44-63.64,1.72-26.19,3.37-52.39,4.94-78.6.21-3.49,1.33-4.93,5.11-4.82,9.48.26,18.98.21,28.47.02,2.9-.06,4.09,1.02,4.92,3.62,10.89,34.34,22.9,68.34,30.98,103.53.24,1.04-.11,2.76,1.42,2.78,1.82.02,1.46-1.88,1.75-3.04,8.81-35,21.34-68.81,32.92-102.92.98-2.89,2.16-4.01,5.19-3.96,9.49.15,18.99.15,28.48.01,3.22-.05,4.26,1.08,4.42,4.32,1.58,31.03,3.3,62.05,5.05,93.07.92,16.42,1.88,32.84,3.03,49.25.28,4.01-.6,5.7-5.01,5.44Z"/>
  <path class="cls-1" d="M444.5,42.06c.09,4.12-1.37,5.03-5.19,4.96-10.98-.23-21.97.08-32.95-.17-3.99-.1-5.08,1.15-5.06,5.08.14,32.61-.01,65.21.19,97.82.03,4.48-1.23,5.55-5.57,5.49-16.65-.25-33.3-.25-49.94,0-4.32.06-5.62-.96-5.59-5.47.2-32.27.01-64.54.22-96.81.03-4.82-1.29-6.29-6.13-6.13-10.81.35-21.64-.01-32.46.17-3.58.07-5.02-.84-4.95-4.72.22-12.3.24-24.62-.01-36.92-.08-3.93,1.36-4.67,4.92-4.65,22.98.14,45.95.07,68.92.07s45.62.09,68.42-.08c3.82-.03,5.26.83,5.18,4.94-.26,12.13-.27,24.28,0,36.42Z"/>
  <path class="cls-1" d="M146.74,41.83c.1,4.37-1.53,5.28-5.49,5.2-10.82-.23-21.65.07-32.47-.17-3.95-.09-5.13,1.11-5.11,5.09.15,32.61-.02,65.22.2,97.83.03,4.56-1.34,5.52-5.61,5.46-16.98-.24-33.97-.21-50.95-.01-3.9.04-5.03-.97-5-4.99.17-32.61.01-65.23.2-97.84.02-4.43-1.19-5.69-5.6-5.56-10.81.32-21.65-.03-32.46.19C.9,47.1-.05,45.98,0,42.53.19,30.05.21,17.57,0,5.09-.06,1.53,1.06.68,4.5.7c22.98.15,45.96.08,68.94.07,5.89,0,11.77,0,17.66.01,16.92.02,33.85.03,50.77-.08,3.65-.03,4.94.85,4.86,4.7-.24,12.14-.27,24.29.01,36.43Z"/>
  <path class="cls-1" d="M1070.31,150.22c0,2.59-.77,3.52-3.4,3.48-7.5-.13-14.99-.16-22.49.02-2.71.06-3.73-1.48-4.86-3.44-20.9-36.28-43.91-71.36-61.68-109.4-.31-.66-.81-1.22-1.79-2.67,0,8.1-.01,15.1,0,22.1.05,29.95.07,59.91.23,89.86,0,3.06-1.25,3.59-3.87,3.53-5.66-.14-11.33-.29-16.98.04-4.06.23-4.91-1.29-4.89-5.1.13-39.61.08-79.22.08-118.83,0-7.66.26-15.33-.11-22.96-.2-4.16,1.31-5.04,5.09-4.91,7.48.26,14.99.27,22.47,0,3.34-.13,5.16,1.12,6.72,3.86,20,34.87,42.9,68.12,59.26,105.05.24.55.61,1.04,1.51,2.55,0-6.92.39-12.73-.08-18.47-.9-11.13-.85-22.26-.86-33.4-.02-18.3.13-36.61-.11-54.92-.05-4.1,1.26-5.15,5.11-4.96,5.65.29,11.33.2,16.98.02,2.9-.09,3.68,1,3.67,3.77-.06,48.27-.06,96.53,0,144.79Z"/>
  <path class="cls-1" d="M2381.92,66.26c-1.57-30.4-19.67-53.57-48.76-61.56-25.07-6.88-50.48-4.61-75.86-1.83-3.7.4-3.46,2.72-3.46,5.31.03,23.3.02,46.61.02,69.91s.07,46.93-.07,70.4c-.03,3.7.84,5.18,4.86,5.47,21.45,1.54,42.87,2.76,64.12-1.85,19.03-4.13,35.23-12.8,46.29-29.48,11.4-17.17,13.89-36.37,12.86-56.37ZM2348.38,101.15c-6.98,19.28-21.63,28.73-41.36,31.17-7.09.87-14.22,1-21.38.37-3.25-.29-4.2-1.3-4.17-4.49.13-16.81.06-33.61.06-50.42s.08-32.95-.07-49.43c-.03-3.46.81-4.83,4.56-5.28,12.39-1.5,24.61-1.39,36.48,2.77,16.41,5.77,25.57,17.76,28.81,34.58,2.67,13.85,1.86,27.49-2.93,40.73Z"/>
  <path class="cls-1" d="M2230.06,76.4c0-1.15.06-3.14,0-5.14-1.01-31.91-19.39-64.45-58.15-69.85-28.68-4-53.23,3.96-70.49,28.43-13.24,18.78-15.85,40.21-13.25,62.44,1.73,14.81,6.87,28.45,16.71,39.91,17.27,20.1,39.85,25.6,65.01,22.16,22.25-3.05,39.5-14.35,50.36-34.33,7.21-13.28,10.17-27.68,9.81-43.62ZM2194.57,108.13c-6.59,15.36-18.28,24.6-39.11,24.55-12.94-.18-24.51-8.05-31.28-22.14-10.23-21.25-10.08-43.07-.32-64.47,7.37-16.15,20.25-24.22,38.27-22.91,16.69,1.21,26.97,11.24,32.96,25.85,8.05,19.64,7.8,39.7-.52,59.12Z"/>
  <path class="cls-1" d="M915.86,31.16c-15.69-25.16-42.88-33.84-70.62-29.83-22.95,3.31-40.06,15.59-50.85,36.07-9.07,17.2-10.95,35.75-8.61,54.8,1.83,14.82,6.86,28.46,16.67,39.93,17.22,20.13,39.82,25.63,64.98,22.23,22.47-3.03,39.81-14.51,50.65-34.71,7.06-13.14,9.96-27.41,9.59-42.71.58-16.16-3.01-31.67-11.81-45.78ZM887.78,115.85c-6.98,11.35-17.81,17.09-27,16.87-20.43-.12-31.96-7.89-38.76-21.7-10.42-21.14-10.35-42.99-.78-64.45,6.91-15.49,18.9-23.96,36.47-23.49,16.8.45,27.92,9.51,34.12,24.1,9.9,23.32,9.46,46.69-4.05,68.67Z"/>
  <path class="cls-1" d="M2073.9,150.23c-3.53-9.34-5.65-19.1-8.01-28.78-3.67-15.06-6.68-30.49-22.8-39.47,2.22-1.21,3.66-2,5.1-2.78,15.63-8.49,23.15-24.09,20.9-43.34-1.88-16.08-13-28.16-30.35-32.29-22.41-5.33-44.97-3.14-67.5-.76-3.45.37-3.64,2.41-3.63,5.19.09,17.64.04,35.27.04,52.91,0,29.45.06,58.89-.07,88.34-.02,3.49.94,4.63,4.46,4.48,6.31-.26,12.65-.23,18.97-.01,3.33.12,4.17-1.04,4.13-4.27-.16-15.3-.07-30.61-.07-45.92q0-12.93,13.18-11.99c16.06,1.15,22.17,6.06,26.48,21.43,3.44,12.31,5.68,24.94,9.98,37.03.93,2.62,2.07,3.77,4.91,3.71,7.33-.16,14.66-.14,21.98-.02,2.93.05,3.29-.85,2.3-3.46ZM2029.11,67.22c-10.08,5.17-21.03,4.13-31.8,4.22-2.59.02-2.22-1.98-2.22-3.57-.04-6.99-.02-13.97-.02-20.96s.06-13.64-.03-20.46c-.04-2.45.31-4.29,3.3-4.44,8.95-.44,17.93-1.6,26.75,1.11,10.55,3.24,15.73,9.76,16.71,21.05.82,9.62-4.05,18.6-12.69,23.05Z"/>
  <path class="cls-1" d="M1773.67,150.29c-3.43-9.2-5.52-18.79-7.88-28.31-3.79-15.33-6.55-31.27-23.09-40.03,2.11-1.13,3.27-1.77,4.44-2.38,15.82-8.15,23.74-22.87,21.86-42.29-1.63-16.82-11.19-27.96-27.26-32.68-23.54-6.93-47.46-4.3-71.31-1.58-2.63.3-2.97,1.88-2.96,4.17.05,47.59.06,95.19-.02,142.78,0,2.8.77,3.81,3.63,3.74,6.49-.17,13-.24,19.48.02,3.55.15,4.48-1.02,4.44-4.49-.18-15.47-.08-30.95-.08-46.43q0-11.59,11.47-11.34c16.82.37,23.66,5.54,28.25,21.81,3.42,12.14,5.64,24.6,9.82,36.55,1.02,2.92,2.32,3.94,5.29,3.88,7.16-.16,14.32-.12,21.48-.02,2.69.03,3.51-.55,2.44-3.4ZM1728.7,67.33c-10.1,5.21-21.02,3.97-31.76,4.1-2.63.04-2.13-2.07-2.14-3.62-.03-3.49-.03-6.98-.03-10.47s.01-6.98.01-10.47v-5.84c.01-4.86.02-9.73-.04-14.59-.03-2.46.45-4.37,3.33-4.48,8.94-.34,17.91-1.56,26.73,1.11,10.43,3.16,15.79,9.68,16.73,20.42.91,10.4-3.85,19.21-12.83,23.84Z"/>
  <path class="cls-1" d="M1336.92,95.66c-.37,16.93-4.98,32.87-17.94,45.13-8.13,7.69-18,11.75-28.92,13.39-12.84,1.94-25.59,1.71-37.9-2.87-19.62-7.3-28.5-22.93-31.91-42.4-3.27-18.65-.66-37.52-1.53-52.91,0-18.84.09-34.31-.08-49.78-.03-3.24.79-4.39,4.13-4.27,6.31.23,12.65.27,18.97-.01,3.75-.17,4.77,1.02,4.74,4.78-.16,27.11-.17,54.23-.04,81.35.04,7.97.61,15.99,3.19,23.61,3.98,11.73,12.3,21.76,30.1,20.97,13.08-.58,23.05-8.65,26.94-22.61,2.07-7.43,2.69-15.06,2.72-22.7.14-27.11.11-54.23-.04-81.35-.01-3.02.6-4.14,3.77-4.04,6.65.21,13.32.18,19.98.02,2.9-.08,4.09.63,4.08,3.85-.12,29.95.39,59.9-.26,89.84Z"/>
  <path class="cls-1" d="M2524.06,96.33c-.08,9.7-2.33,19.17-6.33,28.05-6.95,15.44-19.02,24.97-35.39,28.82-12.66,2.97-25.49,3.08-38.08-.31-20.57-5.55-33.99-22.2-37.01-44.32-2.53-18.59-.5-37.23-1.33-52.47,0-18.51.23-33.66-.13-48.8-.11-4.67,1.42-5.61,5.61-5.36,5.64.33,11.33.33,16.98,0,4.08-.24,5.35.93,5.32,5.19-.21,27.13-.22,54.26-.05,81.39.06,9.64.85,19.25,5.24,28.17,5.95,12.12,15.89,16.81,28.96,15.9,11.86-.83,19.8-7.08,24.33-17.79,3.57-8.42,4.23-17.43,4.27-26.43.11-27.13.11-54.26-.05-81.39-.03-3.88.92-5.26,4.96-5.05,6.48.34,12.99.19,19.48.05,2.63-.05,3.38.85,3.37,3.46-.09,30.3.08,60.59-.15,90.89Z"/>
  <path class="cls-1" d="M1644.95,135.4c-.34,4.8-.27,9.65-.02,14.46.18,3.37-1.09,4.2-4.31,4.19-27.47-.12-54.95-.14-82.43.01-3.73.02-4.79-1.01-4.77-4.77.17-23.79.09-47.59.09-71.38s.07-47.59-.08-71.39c-.02-3.59.75-4.92,4.65-4.89,26.31.17,52.62.16,78.93,0,3.84-.02,4.93,1.2,4.7,4.87-.29,4.64-.29,9.33,0,13.97.23,3.54-.98,4.52-4.46,4.48-16.98-.16-33.97.08-50.95-.17-4.24-.06-5.34,1.21-5.21,5.31.29,9.81.27,19.64,0,29.45-.1,3.84,1.16,4.72,4.82,4.67,15.82-.19,31.64.02,47.46-.15,3.6-.04,5.16.77,4.82,4.69-.35,4.13-.35,8.33,0,12.46.36,4.33-.98,5.76-5.51,5.68-15.31-.29-30.64.03-45.95-.21-4.19-.06-5.82.75-5.67,5.39.37,11.13.38,22.3,0,33.44-.16,4.66,1.5,5.4,5.66,5.35,17.81-.21,35.63.01,53.45-.17,3.67-.03,5.06.86,4.78,4.71Z"/>
  <path class="cls-1" d="M1909.33,3.18c-21.47-4.92-42.98-2.94-64.49-.27-3.49.43-3.02,2.79-3.02,5.11.01,23.47.01,46.93.01,70.39v34.95c0,11.81.18,23.63-.1,35.44-.09,4.01,1.11,5.14,5.01,4.93,5.98-.31,12-.33,17.98.01,3.93.22,4.62-1.28,4.58-4.85-.19-15.64.01-31.29-.16-46.93-.04-3.55.56-4.88,4.62-4.65,9.29.52,18.63.62,27.86-1.24,19.44-3.94,36.95-14.79,41.17-36.73,5.29-27.49-6.49-49.99-33.46-56.16ZM1915.75,52.5c-1.69,11.55-8.95,18.65-20.04,21.65-7.6,2.05-15.37,2.26-23.22,1.13-2.9-.42-3.37-1.78-3.33-4.31.14-7.31.05-14.62.05-21.94s.02-14.95,0-22.43c0-1.73-.08-3.34,2.24-3.7,11.67-1.79,23.32-2.54,33.88,3.98,9.51,5.87,11.94,15.26,10.43,25.62Z"/>
  <path class="cls-1" d="M1161.39,152.12c-8.09,2.19-16.25,3.45-23.11,3.09-14.34.16-26.63-2.22-38.45-7.22-3.29-1.39-4.17-2.86-2.91-6.36,1.63-4.51,2.71-9.24,3.65-13.95.76-3.76,1.77-4.85,5.83-3,13.69,6.23,27.91,9.78,43.08,6.2,8-1.89,14.2-6,16.14-14.38,2.07-8.91-1.28-15.75-9.52-21.18-7.02-4.62-15.08-6.86-22.74-10.02-6.62-2.72-12.89-6.04-18.74-10.24-24.03-17.25-20.73-53.28,5.04-66.93,21.58-11.44,43.9-9.72,66.17-1.53,2.37.88,2.87,2.21,2.04,4.64-1.71,5.02-3.27,10.12-4.6,15.26-.92,3.51-2.34,3.7-5.57,2.35-11.72-4.88-23.86-7.37-36.49-3.98-7.6,2.03-13.34,6.4-14.58,14.62-1.16,7.72,3.1,12.94,9.24,16.86,2.09,1.33,4.34,2.42,6.55,3.53,9.06,4.57,18.94,7.24,27.83,12.16,10.66,5.89,19.48,13.49,22.82,25.75,6.7,24.59-6.85,47.6-31.68,54.33Z"/>
  <path class="cls-1" d="M2876.19,147.7c-4.42,2.28-8.97,4.03-13.96,5.26-.88.22-1.77.43-2.68.61-2.95.61-6.06,1.04-9.38,1.32-.4.03-.81.06-1.22.09-2.53.18-5.18.26-7.97.26-2.59,0-5.16-.07-7.71-.25-1.05-.07-2.1-.16-3.14-.27-1.07-.11-2.14-.24-3.2-.39-5.66-.78-11.21-2.08-16.66-3.95-1.5-.51-2.99-1.07-4.47-1.67-.74-.3-1.48-.61-2.22-.93-2.82-1.23-3.71-2.52-2.67-5.66,1.71-5.2,2.83-10.59,4.21-15.89.63-2.44,1.24-3.47,4.38-2.02,13.96,6.47,28.45,10.34,44.01,6.69,8.19-1.91,14.52-6.11,16.35-14.79,1.9-9.05-1.92-15.76-9.53-20.72-7.19-4.69-15.4-6.96-23.2-10.22-10.06-4.21-19.42-9.46-26.55-18.02-13.32-16.02-10.68-45.83,13.19-59.14,14.71-8.21,30.52-8.52,46.6-6.75,6.29.69,12.37,2.41,18.3,4.76,3.24,1.27,4.56,2.53,3.07,6.21-1.74,4.29-2.88,8.85-4,13.36-.96,3.81-2.23,4.94-6.41,3.11-11.01-4.81-22.57-6.83-34.57-4.19-2.1.46-4.21,1.13-6.12,2.08-12.27,6.12-13.55,20.15-2.59,28.34,7.7,5.75,16.83,8.58,25.59,12.11,5.42,2.18,10.6,4.77,15.57,7.83,28.88,17.83,25.16,58.26-3.02,72.83Z"/>
  <path class="cls-1" d="M689.86,63.22c-2.42,11-2.28,22.12.82,33.07,6.16,21.79,23.12,35.04,45.66,35.67,10.55.3,20.95-.57,30.96-4.2,2.71-.99,4.06-1.06,4.46,2.52.54,4.76,1.63,9.51,2.98,14.12,1.1,3.72-.51,5.12-3.62,6.08-11.08,3.4-22.39,4.97-32.18,4.7-22.24.29-41.07-4.38-56.83-18.15-10.62-9.28-17.2-21.09-20.37-34.69-4.67-19.96-4.03-39.73,4.6-58.57,12.35-26.94,34.79-39.82,63.32-42.85,14.28-1.53,28.58-.46,42.46,4.09,3.8,1.25,4.93,3.02,3.58,6.87-1.6,4.54-3.1,9.18-3.93,13.9-.63,3.58-1.92,3.27-4.64,2.33-13.99-4.85-28.27-6.18-42.7-2.32-19.32,5.17-30.38,18.34-34.57,37.43Z"/>
  <path class="cls-1" d="M2578.36,59.88c-3.66,13.37-3.36,26.68.88,39.8,6.24,19.31,24.1,31.87,45.23,32.3,10.39.21,20.62-.67,30.46-4.22,2.91-1.05,4.02-.66,4.44,2.64.56,4.43,1.49,8.87,2.83,13.13,1.45,4.6-.66,6.18-4.58,7.31-6.12,1.76-12.29,3.01-18.53,3.7-.62.07-1.24.14-1.87.19-.63.06-1.25.11-1.88.16-3.55.27-7.13.35-10.73.24-.55.02-1.1.03-1.64.04-4.98.08-9.87-.2-14.68-.89-.84-.12-1.68-.26-2.52-.4,0,0-.02,0-.03,0-3.37-.6-6.7-1.4-9.98-2.41-.41-.13-.82-.26-1.23-.4-1.63-.54-3.25-1.13-4.86-1.79-2.81-1.14-5.58-2.46-8.3-3.97-16.58-9.22-27.13-23.37-31.62-41.68-5.25-21.44-4.5-42.61,5.57-62.7,10.83-21.61,29.04-33.83,52.26-38.57,17.02-3.48,34.11-2.76,50.85,2.31,6.38,1.93,6.33,2.04,4.53,8.19-1.21,4.15-2.75,8.24-3.44,12.48-.65,3.98-2.25,3.71-5.33,2.64-13.82-4.8-27.94-6-42.19-2.14-17.76,4.8-28.81,16.36-33.64,34.04Z"/>
  <path class="cls-1" d="M2792.44,20.93c.14,3.26-.95,4.36-4.25,4.32-11.32-.17-22.66.21-33.98-.19-4.86-.18-5.7,1.54-5.66,5.9.21,19.63.09,39.28.09,58.92.01,19.64-.12,39.28.11,58.92.04,4.05-1.18,5.14-5.04,4.94-5.82-.31-11.69-.42-17.48.02-4.7.36-5.37-1.51-5.35-5.68.15-38.95.01-77.9.2-116.85.02-4.78-1.22-6.31-6.11-6.16-10.98.36-21.98.01-32.97.18-3.41.05-4.81-.87-4.61-4.48.28-4.98.2-9.99.02-14.98-.09-2.74.71-3.83,3.62-3.82,35.98.07,71.97.07,107.95.01,2.58,0,3.53.85,3.45,3.48-.16,5.15-.22,10.32.01,15.47Z"/>
  <path class="cls-1" d="M1694.78,41.03v5.84c0,3.49-.01,6.98-.01,10.47v-10.47c0-1.94,0-3.89.01-5.84Z"/>
</svg>